<?xml version="1.0" encoding="iso-8859-1"?>
<!-- Generator: Adobe Illustrator 18.1.1, SVG Export Plug-In . SVG Version: 6.00 Build 0)  -->
<svg version="1.1" id="Capa_1" xmlns="http://www.w3.org/2000/svg" xmlns:xlink="http://www.w3.org/1999/xlink" x="0px" y="0px"
	 viewBox="0 0 525.153 525.153" style="enable-background:new 0 0 525.153 525.153;" xml:space="preserve">
<g>
	<path d="M233.387,408.394c0,16.127,13.194,29.19,29.19,29.19s29.19-13.063,29.19-29.19c0-15.995-13.194-29.058-29.19-29.058
		S233.387,392.398,233.387,408.394z M233.387,0v116.759h58.379V60.633c98.926,14.31,175.007,98.926,175.007,201.943
		c0,112.886-91.311,204.197-204.197,204.197S58.379,375.462,58.379,262.576c0-49.058,17.133-93.937,46.104-128.903l158.093,158.093
		l41.115-41.115L105.271,52.253v0.569C41.465,100.632,0,176.473,0,262.576c0,145.052,117.306,262.576,262.576,262.576
		c145.052,0,262.576-117.525,262.576-262.576S407.628,0,262.576,0H233.387z M437.583,262.576c0-15.995-13.063-29.19-29.19-29.19
		c-15.995,0-29.058,13.194-29.058,29.19s13.063,29.19,29.058,29.19C424.52,291.766,437.583,278.572,437.583,262.576z
		 M87.569,262.576c0,15.995,13.063,29.19,29.19,29.19c15.995,0,29.058-13.194,29.058-29.19s-13.063-29.19-29.058-29.19
		C100.632,233.387,87.569,246.581,87.569,262.576z"/>
</g>
<g>
</g>
<g>
</g>
<g>
</g>
<g>
</g>
<g>
</g>
<g>
</g>
<g>
</g>
<g>
</g>
<g>
</g>
<g>
</g>
<g>
</g>
<g>
</g>
<g>
</g>
<g>
</g>
<g>
</g>
</svg>
