<?xml version="1.0" encoding="iso-8859-1"?>
<!-- Generator: Adobe Illustrator 18.1.1, SVG Export Plug-In . SVG Version: 6.00 Build 0)  -->
<svg version="1.1" id="Capa_1" xmlns="http://www.w3.org/2000/svg" xmlns:xlink="http://www.w3.org/1999/xlink" x="0px" y="0px"
	 viewBox="0 0 525.131 525.131" style="enable-background:new 0 0 525.131 525.131;" xml:space="preserve">
<g>
	<path d="M495.952,204.197h-87.504v-33.282c50.218-13.041,87.504-58.248,87.504-112.536h-87.504V29.19
		c0-15.995-13.129-29.19-29.19-29.19H145.872c-16.061,0-29.19,13.194-29.19,29.19v29.19H29.179
		c0,54.266,37.308,99.495,87.504,112.536v33.282H29.179c0,54.266,37.308,99.495,87.504,112.645v33.282H29.179
		c0,54.156,37.308,99.495,87.504,112.536v33.282c0,15.995,13.129,29.19,29.19,29.19h233.387c16.061,0,29.19-13.194,29.19-29.19
		v-33.282c50.218-13.041,87.504-58.379,87.504-112.536h-87.504v-33.282C458.666,303.691,495.952,258.484,495.952,204.197z
		 M262.565,466.773c-32.363,0-58.379-26.236-58.379-58.379c0-32.012,26.017-58.248,58.379-58.248
		c32.078,0,58.379,26.236,58.379,58.248C320.945,440.537,294.928,466.773,262.565,466.773z M262.565,320.956
		c-32.363,0-58.379-26.236-58.379-58.379s26.017-58.379,58.379-58.379c32.078,0,58.379,26.236,58.379,58.379
		S294.928,320.956,262.565,320.956z M262.565,175.007c-32.363,0-58.379-26.236-58.379-58.248c0-32.472,26.017-58.379,58.379-58.379
		c32.078,0,58.379,25.908,58.379,58.379C320.945,148.771,294.928,175.007,262.565,175.007z"/>
</g>
<g>
</g>
<g>
</g>
<g>
</g>
<g>
</g>
<g>
</g>
<g>
</g>
<g>
</g>
<g>
</g>
<g>
</g>
<g>
</g>
<g>
</g>
<g>
</g>
<g>
</g>
<g>
</g>
<g>
</g>
</svg>
