<?xml version="1.0" encoding="iso-8859-1"?>
<!-- Generator: Adobe Illustrator 18.1.1, SVG Export Plug-In . SVG Version: 6.00 Build 0)  -->
<svg version="1.1" id="Capa_1" xmlns="http://www.w3.org/2000/svg" xmlns:xlink="http://www.w3.org/1999/xlink" x="0px" y="0px"
	 viewBox="0 0 525.153 525.153" style="enable-background:new 0 0 525.153 525.153;" xml:space="preserve">
<g>
	<path d="M321.251,262.795l60.94,60.94c7.396-18.927,11.575-39.627,11.575-61.158s-4.179-41.706-11.291-60.633L321.251,262.795z
		 M460.132,123.652l-33.041,33.15c16.542,31.75,25.732,67.416,25.732,105.556c0,38.03-9.409,74.025-25.732,105.468l31.487,31.553
		c25.47-40.459,40.437-88.226,40.437-139.428C498.818,210.302,484.595,163.607,460.132,123.652z M359.894,149.909L209.919,0h-26.236
		v199.317L63.161,78.817l-37.023,37.001l146.758,146.758L26.137,409.335l37.001,37.001l120.522-120.522v199.339h26.236
		l149.975-149.909L247.008,262.576L359.894,149.909z M236.242,100.567l49.342,49.342l-49.342,49.43V100.567z M285.585,375.243
		l-49.342,49.342v-98.772L285.585,375.243z"/>
</g>
<g>
</g>
<g>
</g>
<g>
</g>
<g>
</g>
<g>
</g>
<g>
</g>
<g>
</g>
<g>
</g>
<g>
</g>
<g>
</g>
<g>
</g>
<g>
</g>
<g>
</g>
<g>
</g>
<g>
</g>
</svg>
