<?xml version="1.0" encoding="iso-8859-1"?>
<!-- Generator: Adobe Illustrator 18.1.1, SVG Export Plug-In . SVG Version: 6.00 Build 0)  -->
<svg version="1.1" id="Capa_1" xmlns="http://www.w3.org/2000/svg" xmlns:xlink="http://www.w3.org/1999/xlink" x="0px" y="0px"
	 viewBox="0 0 525.371 525.371" style="enable-background:new 0 0 525.371 525.371;" xml:space="preserve">
<g>
	<path d="M142.229,122l120.347,120.347L415.746,89.177l-21.881-21.881L262.576,198.584l-98.466-98.466h76.585V67.296H109.407
		v131.288h32.822C142.229,198.584,142.229,122,142.229,122z M518.807,366.414c-66.738-63.259-156.889-102.186-256.231-102.186
		S73.084,303.155,6.346,366.414C2.385,370.353,0,375.823,0,381.95c0,6.127,2.385,11.597,6.346,15.536l54.244,54.266
		c3.961,3.939,9.431,6.324,15.558,6.324c5.908,0,11.378-2.385,15.295-6.105c17.308-16.192,36.979-29.737,58.204-40.48
		c7.221-3.501,12.275-10.941,12.275-19.693v-67.832c31.706-10.503,65.644-15.973,100.654-15.973s68.926,5.47,100.654,15.776V391.6
		c0,8.534,5.033,16.192,12.275,19.693c21.444,10.7,40.896,24.485,58.423,40.481c3.939,3.939,9.409,6.105,15.295,6.105
		c6.149,0,11.619-2.385,15.558-6.324l54.266-54.266c3.939-3.939,6.324-9.409,6.324-15.536
		C525.371,375.626,522.767,370.353,518.807,366.414L518.807,366.414z"/>
</g>
<g>
</g>
<g>
</g>
<g>
</g>
<g>
</g>
<g>
</g>
<g>
</g>
<g>
</g>
<g>
</g>
<g>
</g>
<g>
</g>
<g>
</g>
<g>
</g>
<g>
</g>
<g>
</g>
<g>
</g>
</svg>
