<?xml version="1.0" encoding="iso-8859-1"?>
<!-- Generator: Adobe Illustrator 18.1.1, SVG Export Plug-In . SVG Version: 6.00 Build 0)  -->
<svg version="1.1" id="Capa_1" xmlns="http://www.w3.org/2000/svg" xmlns:xlink="http://www.w3.org/1999/xlink" x="0px" y="0px"
	 viewBox="0 0 525.152 525.152" style="enable-background:new 0 0 525.152 525.152;" xml:space="preserve">
<g>
	<path d="M380.856,99.341c19.606,0,35.47-15.864,35.47-35.47c0-23.676-35.47-63.872-35.47-63.872s-35.513,40.196-35.513,63.872
		C345.342,83.477,361.206,99.341,380.856,99.341z M262.565,99.341c19.628,0,35.47-15.864,35.47-35.47
		c0-23.676-35.47-63.872-35.47-63.872s-35.47,40.196-35.47,63.872C227.096,83.477,242.938,99.341,262.565,99.341z M144.275,99.341
		c19.649,0,35.513-15.864,35.513-35.47C179.788,40.196,144.275,0,144.275,0s-35.47,40.196-35.47,63.872
		C108.805,83.477,124.647,99.341,144.275,99.341z M426.26,170.543c-4.726-13.982-17.965-23.894-33.588-23.894H132.459
		c-15.623,0-28.643,9.912-33.588,23.894L49.682,312.269v189.23c0,13.019,10.634,23.654,23.632,23.654h23.654
		c13.019,0,23.654-10.634,23.654-23.654v-23.654h283.911v23.654c0,13.019,10.634,23.654,23.654,23.654h23.654
		c12.998,0,23.632-10.634,23.632-23.654v-189.23L426.26,170.543z M132.459,406.862c-19.628,0-35.492-15.842-35.492-35.47
		s15.864-35.492,35.492-35.492c19.649,0,35.47,15.864,35.47,35.492S152.108,406.862,132.459,406.862z M392.672,406.862
		c-19.649,0-35.47-15.842-35.47-35.47s15.82-35.492,35.47-35.492c19.628,0,35.492,15.864,35.492,35.492
		S412.321,406.862,392.672,406.862z M96.967,288.593l35.492-106.475h260.235l35.492,106.475H96.967z"/>
</g>
<g>
</g>
<g>
</g>
<g>
</g>
<g>
</g>
<g>
</g>
<g>
</g>
<g>
</g>
<g>
</g>
<g>
</g>
<g>
</g>
<g>
</g>
<g>
</g>
<g>
</g>
<g>
</g>
<g>
</g>
</svg>
