<?xml version="1.0" encoding="iso-8859-1"?>
<!-- Generator: Adobe Illustrator 18.1.1, SVG Export Plug-In . SVG Version: 6.00 Build 0)  -->
<svg version="1.1" id="Capa_1" xmlns="http://www.w3.org/2000/svg" xmlns:xlink="http://www.w3.org/1999/xlink" x="0px" y="0px"
	 viewBox="0 0 525.153 525.153" style="enable-background:new 0 0 525.153 525.153;" xml:space="preserve">
<g>
	<path d="M210.105,183.76c-14.507,0-26.323,11.816-26.323,26.323c0,14.42,11.816,26.236,26.323,26.236
		c14.42,0,26.236-11.816,26.236-26.236C236.341,195.576,224.525,183.76,210.105,183.76z M210.105,288.812
		c-14.507,0-26.323,11.816-26.323,26.236c0,14.507,11.816,26.323,26.323,26.323c14.42,0,26.236-11.816,26.236-26.323
		C236.341,300.628,224.525,288.812,210.105,288.812z M131.288,196.932c-7.308,0-13.173,5.777-13.173,13.173
		c0,7.308,5.864,13.085,13.173,13.085c7.308,0,13.173-5.777,13.173-13.085C144.461,202.709,138.597,196.932,131.288,196.932z
		 M210.105,380.692c-7.396,0-13.173,5.864-13.173,13.173c0,7.308,5.777,13.173,13.173,13.173c7.308,0,13.085-5.864,13.085-13.173
		C223.19,386.556,217.413,380.692,210.105,380.692z M131.288,301.985c-7.308,0-13.173,5.777-13.173,13.085
		c0,7.374,5.864,13.151,13.173,13.151c7.308,0,13.173-5.777,13.173-13.173C144.461,307.739,138.597,301.985,131.288,301.985z
		 M210.105,144.461c7.308,0,13.085-5.864,13.085-13.173c0-7.308-5.777-13.173-13.085-13.173c-7.396,0-13.173,5.864-13.173,13.173
		C196.932,138.597,202.709,144.461,210.105,144.461z M315.048,183.76c-14.42,0-26.236,11.816-26.236,26.323
		c0,14.42,11.816,26.236,26.236,26.236c14.507,0,26.323-11.816,26.323-26.236C341.393,195.576,329.577,183.76,315.048,183.76z
		 M315.048,144.461c7.396,0,13.173-5.864,13.173-13.173c0-7.308-5.777-13.173-13.173-13.173c-7.308,0-13.085,5.864-13.085,13.173
		C301.963,138.597,307.739,144.461,315.048,144.461z M393.864,301.985c-7.308,0-13.173,5.777-13.173,13.085
		c0,7.374,5.864,13.151,13.173,13.151c7.308,0,13.173-5.777,13.173-13.173C407.037,307.739,401.173,301.985,393.864,301.985z
		 M393.864,196.932c-7.308,0-13.173,5.777-13.173,13.173c0,7.308,5.864,13.085,13.173,13.085c7.308,0,13.173-5.777,13.173-13.085
		C407.037,202.709,401.173,196.932,393.864,196.932z M262.576,0C117.612,0,0,117.612,0,262.576s117.612,262.576,262.576,262.576
		S525.153,407.54,525.153,262.576S407.54,0,262.576,0z M262.576,472.681c-116.037,0-210.105-94.068-210.105-210.105
		S146.539,52.471,262.576,52.471s210.105,94.068,210.105,210.105S378.613,472.681,262.576,472.681z M315.048,380.692
		c-7.308,0-13.085,5.864-13.085,13.173c0,7.308,5.777,13.173,13.085,13.173c7.396,0,13.173-5.864,13.173-13.173
		C328.22,386.556,322.444,380.692,315.048,380.692z M315.048,288.812c-14.42,0-26.236,11.816-26.236,26.236
		c0,14.507,11.816,26.323,26.236,26.323c14.507,0,26.323-11.816,26.323-26.323C341.393,300.628,329.577,288.812,315.048,288.812z"/>
</g>
<g>
</g>
<g>
</g>
<g>
</g>
<g>
</g>
<g>
</g>
<g>
</g>
<g>
</g>
<g>
</g>
<g>
</g>
<g>
</g>
<g>
</g>
<g>
</g>
<g>
</g>
<g>
</g>
<g>
</g>
</svg>
