<?xml version="1.0" encoding="iso-8859-1"?>
<!-- Generator: Adobe Illustrator 18.1.1, SVG Export Plug-In . SVG Version: 6.00 Build 0)  -->
<svg version="1.1" id="Capa_1" xmlns="http://www.w3.org/2000/svg" xmlns:xlink="http://www.w3.org/1999/xlink" x="0px" y="0px"
	 viewBox="0 0 525.174 525.174" style="enable-background:new 0 0 525.174 525.174;" xml:space="preserve">
<g>
	<path d="M218.835,71.957V7.888c-24.529,6.521-47.548,16.652-68.445,29.54l44.857,44.682
		C202.906,78.456,210.586,74.78,218.835,71.957z M0,43.183l72.34,72.318c-23.588,37.395-37.395,81.858-37.395,129.647
		c0,67.701,27.942,128.684,72.296,172.797l-72.296,72.296h183.891V306.35l-68.664,68.664C117,341.645,96.256,296,96.256,245.148
		c0-30.678,7.68-59.452,20.744-84.79l247.588,247.456c-7.68,4.004-15.339,7.68-23.588,10.394v64.047
		c24.551-6.389,47.548-16.52,68.314-29.387l72.318,72.296l38.905-38.927L39.321,4.256L0,43.183z M525.153,0.011h-183.76v183.76
		l68.532-68.532c33.15,33.369,54.025,79.014,54.025,129.888c0,30.656-7.68,59.43-20.875,84.79l44.682,44.857
		c23.61-37.417,37.417-81.858,37.417-129.647c0-67.723-27.833-128.706-72.296-172.819L525.153,0.011z"/>
</g>
<g>
</g>
<g>
</g>
<g>
</g>
<g>
</g>
<g>
</g>
<g>
</g>
<g>
</g>
<g>
</g>
<g>
</g>
<g>
</g>
<g>
</g>
<g>
</g>
<g>
</g>
<g>
</g>
<g>
</g>
</svg>
