<?xml version="1.0" encoding="iso-8859-1"?>
<!-- Generator: Adobe Illustrator 18.1.1, SVG Export Plug-In . SVG Version: 6.00 Build 0)  -->
<svg version="1.1" id="Capa_1" xmlns="http://www.w3.org/2000/svg" xmlns:xlink="http://www.w3.org/1999/xlink" x="0px" y="0px"
	 viewBox="0 0 525.153 525.153" style="enable-background:new 0 0 525.153 525.153;" xml:space="preserve">
<g>
	<path d="M288.823,118.159c36.257,0,65.644,29.43,65.644,65.644c0,19.431-8.643,36.476-21.794,48.555l95.315,95.337
		c25.711-48.817,44.638-99.779,44.638-143.892C472.626,82.186,390.462,0,288.823,0c-51.968,0-98.729,21.794-132.338,56.454
		l83.784,83.784C252.347,126.584,269.436,118.159,288.823,118.159z M403.591,370.233L282.018,248.682l-2.91-2.932L59.594,26.236
		L26.247,59.583l83.521,83.521c-2.888,13.129-4.704,26.805-4.704,40.699c0,137.831,183.76,341.349,183.76,341.349
		s43.85-48.555,88.751-114.199l88.007,87.963l33.325-33.325L403.591,370.233z"/>
</g>
<g>
</g>
<g>
</g>
<g>
</g>
<g>
</g>
<g>
</g>
<g>
</g>
<g>
</g>
<g>
</g>
<g>
</g>
<g>
</g>
<g>
</g>
<g>
</g>
<g>
</g>
<g>
</g>
<g>
</g>
</svg>
