<?xml version="1.0" encoding="iso-8859-1"?>
<!-- Generator: Adobe Illustrator 18.1.1, SVG Export Plug-In . SVG Version: 6.00 Build 0)  -->
<svg version="1.1" id="Capa_1" xmlns="http://www.w3.org/2000/svg" xmlns:xlink="http://www.w3.org/1999/xlink" x="0px" y="0px"
	 viewBox="0 0 525.153 525.153" style="enable-background:new 0 0 525.153 525.153;" xml:space="preserve">
<g>
	<path d="M317.87,124.439c15.12,0,27.658-12.516,27.658-27.658c0-15.229-12.516-27.658-27.658-27.658
		c-15.229,0-27.658,12.407-27.658,27.658C290.234,111.901,302.641,124.439,317.87,124.439z M312.313,248.222l5.558,0.525
		c22.975,0,41.487-18.512,41.487-41.487s-18.512-41.487-41.487-41.487s-41.487,18.512-41.487,41.487l0.525,5.558
		C279.447,231.33,293.823,245.706,312.313,248.222z M317.87,27.658c7.724,0,13.829-6.105,13.829-13.829S325.595,0,317.87,0
		c-7.724,0-13.829,6.105-13.829,13.829S310.168,27.658,317.87,27.658z M207.282,27.658c7.724,0,13.829-6.105,13.829-13.829
		S214.984,0,207.282,0s-13.829,6.105-13.829,13.829S199.558,27.658,207.282,27.658z M511.324,221.089
		c7.724,0,13.829-6.105,13.829-13.829c0-7.724-6.105-13.829-13.829-13.829c-7.724,0-13.829,6.105-13.829,13.829
		C497.495,214.984,503.621,221.089,511.324,221.089z M207.282,124.439c15.229,0,27.658-12.516,27.658-27.658
		c0-15.229-12.407-27.658-27.658-27.658c-15.12,0-27.658,12.407-27.658,27.658C179.624,111.901,192.14,124.439,207.282,124.439z
		 M428.371,345.529c15.229,0,27.658-12.516,27.658-27.658c0-15.229-12.407-27.658-27.658-27.658
		c-15.12,0-27.658,12.407-27.658,27.658C400.713,333.012,413.251,345.529,428.371,345.529z M428.371,234.918
		c15.229,0,27.658-12.407,27.658-27.658c0-15.12-12.407-27.658-27.658-27.658c-15.12,0-27.658,12.516-27.658,27.658
		C400.713,222.511,413.251,234.918,428.371,234.918z M428.371,124.439c15.229,0,27.658-12.516,27.658-27.658
		c0-15.229-12.407-27.658-27.658-27.658c-15.12,0-27.658,12.407-27.658,27.658C400.713,111.901,413.251,124.439,428.371,124.439z
		 M317.87,497.495c-7.724,0-13.829,6.105-13.829,13.829c0,7.724,6.127,13.829,13.829,13.829s13.829-6.105,13.829-13.829
		C331.699,503.599,325.595,497.495,317.87,497.495z M0,76.519l104.483,104.505l-7.702-1.4c-15.229,0-27.658,12.516-27.658,27.658
		c0,15.229,12.407,27.658,27.658,27.658c15.12,0,27.658-12.407,27.658-27.658c0-2.713-0.853-5.208-1.751-7.724l77.744,77.701
		c-19.693,3.085-34.616,20.153-34.616,40.612c0,22.975,18.512,41.487,41.487,41.487c20.481,0,37.548-14.923,40.612-34.616
		l77.701,77.744c-2.494-0.897-5.011-1.751-7.724-1.751c-15.229,0-27.658,12.516-27.658,27.658c0,15.229,12.407,27.658,27.658,27.658
		c15.12,0,27.658-12.407,27.658-27.658c0-2.713-0.853-5.208-1.751-7.724l104.505,104.483l35.36-35.054L35.054,41.487L0,76.519z
		 M207.282,400.713c-15.12,0-27.658,12.516-27.658,27.658c0,15.229,12.516,27.658,27.658,27.658
		c15.229,0,27.658-12.407,27.658-27.658C234.918,413.251,222.511,400.713,207.282,400.713z M511.324,304.063
		c-7.724,0-13.829,6.105-13.829,13.829s6.105,13.829,13.829,13.829c7.724,0,13.829-6.127,13.829-13.851
		C525.153,310.146,519.048,304.063,511.324,304.063z M96.781,290.234c-15.229,0-27.658,12.407-27.658,27.658
		c0,15.12,12.407,27.658,27.658,27.658c15.12,0,27.658-12.516,27.658-27.658C124.439,302.641,111.901,290.234,96.781,290.234z
		 M13.829,193.453C6.105,193.453,0,199.558,0,207.282c0,7.724,6.105,13.829,13.829,13.829s13.829-6.105,13.829-13.829
		C27.658,199.558,21.531,193.453,13.829,193.453z M207.282,497.495c-7.724,0-13.829,6.105-13.829,13.829
		c0,7.724,6.105,13.829,13.829,13.829c7.724,0,13.829-6.105,13.829-13.829C221.111,503.599,214.984,497.495,207.282,497.495z
		 M96.781,400.713c-15.229,0-27.658,12.516-27.658,27.658c0,15.229,12.407,27.658,27.658,27.658
		c15.12,0,27.658-12.407,27.658-27.658C124.439,413.251,111.901,400.713,96.781,400.713z M13.829,304.063
		C6.105,304.063,0,310.168,0,317.87s6.105,13.829,13.829,13.829s13.829-6.105,13.829-13.829
		C27.658,310.146,21.531,304.063,13.829,304.063z"/>
</g>
<g>
</g>
<g>
</g>
<g>
</g>
<g>
</g>
<g>
</g>
<g>
</g>
<g>
</g>
<g>
</g>
<g>
</g>
<g>
</g>
<g>
</g>
<g>
</g>
<g>
</g>
<g>
</g>
<g>
</g>
</svg>
