<?xml version="1.0" encoding="iso-8859-1"?>
<!-- Generator: Adobe Illustrator 18.1.1, SVG Export Plug-In . SVG Version: 6.00 Build 0)  -->
<svg version="1.1" id="Capa_1" xmlns="http://www.w3.org/2000/svg" xmlns:xlink="http://www.w3.org/1999/xlink" x="0px" y="0px"
	 viewBox="0 0 525.153 525.153" style="enable-background:new 0 0 525.153 525.153;" xml:space="preserve">
<g>
	<path d="M184.832,63.084v33.522l46.213,46.192V63.084h92.405v92.405h-79.714l46.213,46.213h33.5v33.5l46.213,46.213v-79.714h92.405
		v92.405h-79.714l46.192,46.213h33.522v33.5l46.192,46.213V63.084c0-25.426-20.809-46.192-46.192-46.192H105.118l46.213,46.192
		H184.832z M369.664,63.084h92.405v92.405h-92.405V63.084z M29.343,0L0,29.584l46.213,46.213v356.951
		c0,25.404,20.787,46.192,46.192,46.192h357.191l46.213,46.213l29.343-29.321L29.343,0z M231.045,260.607l33.5,33.5h-33.5V260.607z
		 M92.405,121.989l33.5,33.5h-33.5V121.989z M184.832,432.748H92.405v-92.427h92.427
		C184.832,340.321,184.832,432.748,184.832,432.748z M184.832,294.107H92.405v-92.405h79.714l12.713,12.691
		C184.832,214.394,184.832,294.107,184.832,294.107z M323.45,432.748h-92.405v-92.427h79.714l12.691,12.472V432.748z
		 M369.664,432.748v-33.741l33.719,33.741H369.664z"/>
</g>
<g>
</g>
<g>
</g>
<g>
</g>
<g>
</g>
<g>
</g>
<g>
</g>
<g>
</g>
<g>
</g>
<g>
</g>
<g>
</g>
<g>
</g>
<g>
</g>
<g>
</g>
<g>
</g>
<g>
</g>
</svg>
