<?xml version="1.0" encoding="iso-8859-1"?>
<!-- Generator: Adobe Illustrator 18.1.1, SVG Export Plug-In . SVG Version: 6.00 Build 0)  -->
<svg version="1.1" id="Capa_1" xmlns="http://www.w3.org/2000/svg" xmlns:xlink="http://www.w3.org/1999/xlink" x="0px" y="0px"
	 viewBox="0 0 525.153 525.153" style="enable-background:new 0 0 525.153 525.153;" xml:space="preserve">
<g>
	<path d="M105.052,236.341H52.515V131.288H0v262.576h52.515V288.812h52.515v105.052h52.471V131.288h-52.45V236.341z
		 M288.812,131.288H183.803v262.576h105.009c28.883,0,52.515-23.632,52.515-52.515V183.803
		C341.349,154.92,317.717,131.288,288.812,131.288z M288.812,341.349h-52.471V183.803h52.471V341.349z M525.153,236.341v-52.537
		c0-28.883-23.632-52.515-52.515-52.515H367.629v262.576H420.1V288.812h26.279l26.258,105.052h52.515L493.906,284.37
		C512.286,276.208,525.153,257.872,525.153,236.341z M472.637,236.341h-52.515v-52.537h52.515V236.341z"/>
</g>
<g>
</g>
<g>
</g>
<g>
</g>
<g>
</g>
<g>
</g>
<g>
</g>
<g>
</g>
<g>
</g>
<g>
</g>
<g>
</g>
<g>
</g>
<g>
</g>
<g>
</g>
<g>
</g>
<g>
</g>
</svg>
