<?xml version="1.0" encoding="iso-8859-1"?>
<!-- Generator: Adobe Illustrator 18.1.1, SVG Export Plug-In . SVG Version: 6.00 Build 0)  -->
<svg version="1.1" id="Capa_1" xmlns="http://www.w3.org/2000/svg" xmlns:xlink="http://www.w3.org/1999/xlink" x="0px" y="0px"
	 viewBox="0 0 525.153 525.153" style="enable-background:new 0 0 525.153 525.153;" xml:space="preserve">
<g>
	<path d="M321.897,25.032v184.744h184.788l-55.469-55.469l73.937-73.893l-73.85-73.871l-73.937,73.959L321.897,25.032z
		 M444.279,374.828c-32.669,0-64.047-5.164-93.324-14.923c-9.125-2.757-19.343-0.7-26.608,6.367l-57.504,57.46
		c-73.959-37.68-134.614-97.985-172.228-172.163l57.46-57.789c7.352-6.827,9.409-17.046,6.564-26.17
		c-9.65-29.255-14.901-60.611-14.901-93.258c0-14.42-11.772-26.17-26.126-26.17H26.126C11.772,48.183,0,59.933,0,74.353
		C0,319.708,198.836,518.61,444.279,518.61c14.354,0,26.104-11.707,26.104-26.148v-91.42
		C470.405,386.622,458.633,374.828,444.279,374.828z"/>
</g>
<g>
</g>
<g>
</g>
<g>
</g>
<g>
</g>
<g>
</g>
<g>
</g>
<g>
</g>
<g>
</g>
<g>
</g>
<g>
</g>
<g>
</g>
<g>
</g>
<g>
</g>
<g>
</g>
<g>
</g>
</svg>
