<?xml version="1.0" encoding="iso-8859-1"?>
<!-- Generator: Adobe Illustrator 18.1.1, SVG Export Plug-In . SVG Version: 6.00 Build 0)  -->
<svg version="1.1" id="Capa_1" xmlns="http://www.w3.org/2000/svg" xmlns:xlink="http://www.w3.org/1999/xlink" x="0px" y="0px"
	 viewBox="0 0 525.153 525.153" style="enable-background:new 0 0 525.153 525.153;" xml:space="preserve">
<g>
	<path d="M501.28,71.618V59.67C501.28,26.739,474.563,0,441.61,0c-32.931,0-59.692,26.739-59.692,59.67V71.64
		c-13.129,0-23.873,10.744-23.873,23.851v95.468c0,13.151,10.744,23.894,23.873,23.894H501.28c13.129,0,23.873-10.744,23.873-23.894
		v-95.49C525.153,82.383,514.409,71.618,501.28,71.618z M482.178,71.618H401.02V59.67c0-22.385,18.162-40.568,40.568-40.568
		c22.428,0,40.568,18.183,40.568,40.568v11.947H482.178z M427.759,262.576c0.963,7.855,1.926,15.776,1.926,23.894
		c0,49.627-19.102,94.746-50.13,128.641c-6.192-19.321-23.873-33.172-45.36-33.172h-23.873v-71.618
		c0-13.151-10.744-23.851-23.873-23.851H143.235v-47.789h47.745c13.129,0,23.873-10.7,23.873-23.851v-47.723h47.723
		c26.236,0,47.745-21.487,47.745-47.745V58.751c-22.669-7.155-46.542-11.006-71.596-11.006C106.934,47.745,0,154.701,0,286.471
		c0,131.704,106.934,238.682,238.704,238.682c131.748,0,238.704-106.978,238.704-238.682c0-8.118-0.46-16.017-1.203-23.894H427.759z
		 M214.831,475.744c-94.309-11.707-167.108-91.924-167.108-189.274c0-14.814,1.926-28.905,5.011-42.756l114.352,114.352v23.894
		c0,26.236,21.466,47.745,47.745,47.745V475.744z"/>
</g>
<g>
</g>
<g>
</g>
<g>
</g>
<g>
</g>
<g>
</g>
<g>
</g>
<g>
</g>
<g>
</g>
<g>
</g>
<g>
</g>
<g>
</g>
<g>
</g>
<g>
</g>
<g>
</g>
<g>
</g>
</svg>
