<?xml version="1.0" encoding="iso-8859-1"?>
<!-- Generator: Adobe Illustrator 18.1.1, SVG Export Plug-In . SVG Version: 6.00 Build 0)  -->
<svg version="1.1" id="Capa_1" xmlns="http://www.w3.org/2000/svg" xmlns:xlink="http://www.w3.org/1999/xlink" x="0px" y="0px"
	 viewBox="0 0 525.153 525.153" style="enable-background:new 0 0 525.153 525.153;" xml:space="preserve">
<g>
	<path d="M525.153,186.67c0-100.764-81.508-182.272-182.272-182.272S160.609,85.906,160.609,186.67
		c0,90.348,65.622,165.073,151.791,179.427v102.58H104.133V390.56h26.039V286.427c0-14.31-11.728-26.039-26.039-26.039H26.039
		C11.728,260.388,0,272.117,0,286.427V390.56h26.039v130.194h416.577v-52.078h-78.095V367.65
		C454.87,356.951,525.153,280.169,525.153,186.67z M65.097,234.327c21.597,0,39.036-17.439,39.036-39.058
		c0-21.641-17.439-39.08-39.036-39.08s-39.058,17.461-39.058,39.102C26.039,216.888,43.5,234.327,65.097,234.327z"/>
</g>
<g>
</g>
<g>
</g>
<g>
</g>
<g>
</g>
<g>
</g>
<g>
</g>
<g>
</g>
<g>
</g>
<g>
</g>
<g>
</g>
<g>
</g>
<g>
</g>
<g>
</g>
<g>
</g>
<g>
</g>
</svg>
