<?xml version="1.0" encoding="iso-8859-1"?>
<!-- Generator: Adobe Illustrator 18.1.1, SVG Export Plug-In . SVG Version: 6.00 Build 0)  -->
<svg version="1.1" id="Capa_1" xmlns="http://www.w3.org/2000/svg" xmlns:xlink="http://www.w3.org/1999/xlink" x="0px" y="0px"
	 viewBox="0 0 525.153 525.153" style="enable-background:new 0 0 525.153 525.153;" xml:space="preserve">
<g>
	<path d="M350.102,113.761c21.663,0,39.386-17.702,39.386-39.365S371.764,35.01,350.102,35.01
		c-21.881,0-39.386,17.746-39.386,39.408S328.22,113.761,350.102,113.761z M415.746,271.329
		c-60.393,0-109.407,49.014-109.407,109.407s49.014,109.407,109.407,109.407s109.407-49.014,109.407-109.407
		S476.138,271.329,415.746,271.329z M415.746,457.32c-42.231,0-76.585-34.354-76.585-76.585s34.354-76.585,76.585-76.585
		s76.585,34.354,76.585,76.585S457.977,457.32,415.746,457.32z M323.844,227.566h91.902V188.18h-70.02l-42.231-71.552
		c-6.564-10.941-18.402-18.162-31.947-18.162c-10.284,0-19.474,4.136-26.258,10.941l-80.961,80.939
		c-7.002,6.586-11.159,15.995-11.159,26.279c0,13.763,7.221,25.382,18.599,32.187l73.303,44.397v109.407h39.386V260.826
		l-49.233-36.542l50.765-50.984L323.844,227.566z M109.407,271.329C49.014,271.329,0,320.343,0,380.736
		s49.014,109.407,109.407,109.407s109.407-49.014,109.407-109.407S169.799,271.329,109.407,271.329z M109.407,457.32
		c-42.231,0-76.585-34.354-76.585-76.585s34.354-76.585,76.585-76.585s76.585,34.354,76.585,76.585S151.638,457.32,109.407,457.32z"
		/>
</g>
<g>
</g>
<g>
</g>
<g>
</g>
<g>
</g>
<g>
</g>
<g>
</g>
<g>
</g>
<g>
</g>
<g>
</g>
<g>
</g>
<g>
</g>
<g>
</g>
<g>
</g>
<g>
</g>
<g>
</g>
</svg>
