<?xml version="1.0" encoding="iso-8859-1"?>
<!-- Generator: Adobe Illustrator 18.1.1, SVG Export Plug-In . SVG Version: 6.00 Build 0)  -->
<svg version="1.1" id="Capa_1" xmlns="http://www.w3.org/2000/svg" xmlns:xlink="http://www.w3.org/1999/xlink" x="0px" y="0px"
	 viewBox="0 0 525.153 525.153" style="enable-background:new 0 0 525.153 525.153;" xml:space="preserve">
<g>
	<path d="M525.153,205.794V7.046h-198.77l59.649,59.67l-79.517,79.517l79.451,79.429l79.517-79.517L525.153,205.794z
		 M477.889,363.449c-35.141,0-68.883-5.58-100.392-16.017c-9.825-2.998-20.809-0.766-28.643,6.849l-61.837,61.793
		c-79.561-40.546-144.811-105.381-185.248-185.248l61.815-62.077c7.899-7.374,10.131-18.358,7.046-28.183
		c-10.372-31.444-16.039-65.163-16.039-100.282c0-15.536-12.647-28.183-28.096-28.183h-98.4C12.647,12.1,0,24.748,0,40.284
		c0,263.867,213.89,477.823,477.889,477.823c15.448,0,28.074-12.604,28.074-28.096v-98.357
		C505.984,376.119,493.337,363.449,477.889,363.449z"/>
</g>
<g>
</g>
<g>
</g>
<g>
</g>
<g>
</g>
<g>
</g>
<g>
</g>
<g>
</g>
<g>
</g>
<g>
</g>
<g>
</g>
<g>
</g>
<g>
</g>
<g>
</g>
<g>
</g>
<g>
</g>
</svg>
