<?xml version="1.0" encoding="iso-8859-1"?>
<!-- Generator: Adobe Illustrator 18.1.1, SVG Export Plug-In . SVG Version: 6.00 Build 0)  -->
<svg version="1.1" id="Capa_1" xmlns="http://www.w3.org/2000/svg" xmlns:xlink="http://www.w3.org/1999/xlink" x="0px" y="0px"
	 viewBox="0 0 525.153 525.153" style="enable-background:new 0 0 525.153 525.153;" xml:space="preserve">
<g>
	<path d="M472.681,380.692c-32.822,0-64.375-5.23-93.762-14.967c-9.19-2.823-19.453-0.722-26.761,6.367l-57.811,57.723
		c-74.309-37.833-135.249-98.466-172.994-173.016l57.723-57.986c7.396-6.871,9.497-17.133,6.586-26.323
		c-9.737-29.387-14.967-60.852-14.967-93.674c0-14.507-11.816-26.323-26.236-26.323H52.472c-14.42,0-26.236,11.816-26.236,26.323
		c0,246.493,199.842,446.336,446.445,446.336c14.42,0,26.236-11.816,26.236-26.236v-91.88
		C498.917,392.508,487.101,380.692,472.681,380.692z M472.681,78.817V65.644C472.681,29.387,443.207,0,407.037,0
		c-36.257,0-65.644,29.387-65.644,65.644v13.173c-14.507,0-26.323,11.816-26.323,26.236v105.052
		c0,14.42,11.816,26.236,26.323,26.236h131.288c14.42,0,26.236-11.816,26.236-26.236V105.052
		C498.917,90.633,487.101,78.817,472.681,78.817z M451.675,78.817h-89.276V65.644c0-24.66,19.978-44.638,44.638-44.638
		s44.638,19.978,44.638,44.638C451.675,65.644,451.675,78.817,451.675,78.817z"/>
</g>
<g>
</g>
<g>
</g>
<g>
</g>
<g>
</g>
<g>
</g>
<g>
</g>
<g>
</g>
<g>
</g>
<g>
</g>
<g>
</g>
<g>
</g>
<g>
</g>
<g>
</g>
<g>
</g>
<g>
</g>
</svg>
