<?xml version="1.0" encoding="iso-8859-1"?>
<!-- Generator: Adobe Illustrator 18.1.1, SVG Export Plug-In . SVG Version: 6.00 Build 0)  -->
<svg version="1.1" id="Capa_1" xmlns="http://www.w3.org/2000/svg" xmlns:xlink="http://www.w3.org/1999/xlink" x="0px" y="0px"
	 viewBox="0 0 525.153 525.153" style="enable-background:new 0 0 525.153 525.153;" xml:space="preserve">
<g>
	<path d="M312.597,100.02c0-27.461-22.494-49.977-50.021-49.977h-24.989V25.076C237.588,11.269,226.341,0,212.555,0h-99.998
		c-13.763,0-25.01,11.269-25.01,25.076v24.989h-25.01c-27.527,0-50.021,22.516-50.021,49.977v375.09
		c0.022,27.527,22.516,50.021,50.021,50.021h200.039c27.505,0,50.021-22.494,50.021-50.043h200.039V100.02H312.597z
		 M262.576,425.133h-50.021v-50.065h50.021V425.133z M262.576,200.083h-50.021v-49.999h50.021V200.083z M362.618,425.133h-50.021
		v-50.065h50.021V425.133z M362.618,200.083h-50.021v-49.999h50.021V200.083z M462.616,425.133h-50.021v-50.065h50.021V425.133z
		 M462.616,200.083h-50.021v-49.999h50.021V200.083z"/>
</g>
<g>
</g>
<g>
</g>
<g>
</g>
<g>
</g>
<g>
</g>
<g>
</g>
<g>
</g>
<g>
</g>
<g>
</g>
<g>
</g>
<g>
</g>
<g>
</g>
<g>
</g>
<g>
</g>
<g>
</g>
</svg>
