<?xml version="1.0" encoding="iso-8859-1"?>
<!-- Generator: Adobe Illustrator 18.1.1, SVG Export Plug-In . SVG Version: 6.00 Build 0)  -->
<svg version="1.1" id="Capa_1" xmlns="http://www.w3.org/2000/svg" xmlns:xlink="http://www.w3.org/1999/xlink" x="0px" y="0px"
	 viewBox="0 0 525.153 525.153" style="enable-background:new 0 0 525.153 525.153;" xml:space="preserve">
<g>
	<path d="M262.576,0C168.815,0,84.79,40.459,26.542,105.052l236.034,420.1l236.034-420.1C440.581,40.656,356.338,0,262.576,0z
		 M131.288,131.288c0-28.84,23.632-52.471,52.471-52.471c28.927,0,52.559,23.632,52.559,52.471s-23.632,52.471-52.559,52.471
		C154.92,183.76,131.288,160.128,131.288,131.288z M262.576,341.393c-28.84,0-52.471-23.632-52.471-52.559
		c0-28.84,23.632-52.471,52.471-52.471s52.471,23.632,52.471,52.471C315.048,317.739,291.416,341.393,262.576,341.393z"/>
</g>
<g>
</g>
<g>
</g>
<g>
</g>
<g>
</g>
<g>
</g>
<g>
</g>
<g>
</g>
<g>
</g>
<g>
</g>
<g>
</g>
<g>
</g>
<g>
</g>
<g>
</g>
<g>
</g>
<g>
</g>
</svg>
