<?xml version="1.0" encoding="iso-8859-1"?>
<!-- Generator: Adobe Illustrator 18.1.1, SVG Export Plug-In . SVG Version: 6.00 Build 0)  -->
<svg version="1.1" id="Capa_1" xmlns="http://www.w3.org/2000/svg" xmlns:xlink="http://www.w3.org/1999/xlink" x="0px" y="0px"
	 viewBox="0 0 525.131 525.131" style="enable-background:new 0 0 525.131 525.131;" xml:space="preserve">
<g>
	<path d="M367.629,210.061H315.07v52.515h52.559V210.061z M367.629,315.092H315.07v52.515h52.559V315.092z M157.524,210.061h-52.471
		v52.515h52.471C157.524,262.576,157.524,210.061,157.524,210.061z M262.576,210.061h-52.471v52.515h52.471V210.061z
		 M472.681,52.515H52.471C23.632,52.515,0,76.147,0,105.052V420.1c0,28.883,23.632,52.515,52.471,52.515h420.188
		c28.84,0,52.472-23.632,52.472-52.515V105.052C525.153,76.147,501.521,52.515,472.681,52.515z M472.681,420.1H52.471V105.052
		h420.188V420.1H472.681z"/>
</g>
<g>
</g>
<g>
</g>
<g>
</g>
<g>
</g>
<g>
</g>
<g>
</g>
<g>
</g>
<g>
</g>
<g>
</g>
<g>
</g>
<g>
</g>
<g>
</g>
<g>
</g>
<g>
</g>
<g>
</g>
</svg>
