<?xml version="1.0" encoding="iso-8859-1"?>
<!-- Generator: Adobe Illustrator 18.1.1, SVG Export Plug-In . SVG Version: 6.00 Build 0)  -->
<svg version="1.1" id="Capa_1" xmlns="http://www.w3.org/2000/svg" xmlns:xlink="http://www.w3.org/1999/xlink" x="0px" y="0px"
	 viewBox="0 0 525.153 525.153" style="enable-background:new 0 0 525.153 525.153;" xml:space="preserve">
<g>
	<path d="M362.049,126.212L235.815,0v85.162C126.54,98.751,41.596,191.987,41.596,305.157c0,113.214,84.593,206.385,194.219,219.995
		v-55.994c-78.817-13.326-138.772-81.596-138.772-164.001s59.955-150.631,138.772-163.935v108.466L362.049,126.212z
		 M483.556,277.434c-4.683-38.599-19.956-75.71-44.966-107.941l-39.408,39.408c15.054,20.809,24.42,44.375,28.38,68.51h55.994
		V277.434z M291.306,468.83v56.06c38.555-4.683,75.994-19.693,108.203-44.638l-39.977-39.977
		C338.68,455.242,315.42,464.935,291.306,468.83z M399.182,401.742l39.408,39.102c25.01-32.166,40.284-69.32,44.966-107.941h-55.994
		C423.601,357.016,414.236,380.626,399.182,401.742z"/>
</g>
<g>
</g>
<g>
</g>
<g>
</g>
<g>
</g>
<g>
</g>
<g>
</g>
<g>
</g>
<g>
</g>
<g>
</g>
<g>
</g>
<g>
</g>
<g>
</g>
<g>
</g>
<g>
</g>
<g>
</g>
</svg>
