<?xml version="1.0" encoding="iso-8859-1"?>
<!-- Generator: Adobe Illustrator 18.1.1, SVG Export Plug-In . SVG Version: 6.00 Build 0)  -->
<svg version="1.1" id="Capa_1" xmlns="http://www.w3.org/2000/svg" xmlns:xlink="http://www.w3.org/1999/xlink" x="0px" y="0px"
	 viewBox="0 0 525.153 525.153" style="enable-background:new 0 0 525.153 525.153;" xml:space="preserve">
<g>
	<path d="M299.512,0c0,0,18.249,65.228,18.249,118.159c0,50.699-33.238,91.814-83.981,91.814c-50.984,0-89.342-41.115-89.342-91.814
		l0.722-8.862c-49.736,59.08-79.539,135.686-79.539,218.901c0,108.816,88.138,196.954,196.954,196.954
		S459.53,437.014,459.53,328.198C459.53,195.466,395.79,77.044,299.512,0z M255.443,451.303c-43.828,0-79.298-34.485-79.298-77.329
		c0-39.89,25.886-67.92,69.167-76.825c43.588-8.84,88.663-29.802,113.761-63.478c9.628,31.772,14.551,65.228,14.551,99.473
		C373.624,398.35,320.649,451.303,255.443,451.303z"/>
</g>
<g>
</g>
<g>
</g>
<g>
</g>
<g>
</g>
<g>
</g>
<g>
</g>
<g>
</g>
<g>
</g>
<g>
</g>
<g>
</g>
<g>
</g>
<g>
</g>
<g>
</g>
<g>
</g>
<g>
</g>
</svg>
