<?xml version="1.0" encoding="iso-8859-1"?>
<!-- Generator: Adobe Illustrator 18.1.1, SVG Export Plug-In . SVG Version: 6.00 Build 0)  -->
<svg version="1.1" id="Capa_1" xmlns="http://www.w3.org/2000/svg" xmlns:xlink="http://www.w3.org/1999/xlink" x="0px" y="0px"
	 viewBox="0 0 525.153 525.153" style="enable-background:new 0 0 525.153 525.153;" xml:space="preserve">
<g>
	<path d="M59.681,358.045v47.745c65.885,0,119.341,53.456,119.341,119.363h47.745C226.767,432.748,152.043,358.045,59.681,358.045z
		 M59.681,453.557v71.596h71.596C131.277,485.525,99.309,453.557,59.681,453.557z M59.681,262.576v47.745
		c118.641,0,214.831,96.19,214.831,214.831h47.745C322.236,379.992,204.799,262.576,59.681,262.576z M417.726,0.241L179.022,0
		c-26.258,0-47.745,21.509-47.745,47.767v175.926c16.477,3.785,32.45,8.818,47.745,15.229V95.468h238.704V405.79h-72.318
		c12.407,29.846,20.043,61.815,22.647,95.468h49.671c26.258,0,47.745-21.466,47.745-47.723V47.767
		C465.449,21.509,443.984,0.241,417.726,0.241z"/>
</g>
<g>
</g>
<g>
</g>
<g>
</g>
<g>
</g>
<g>
</g>
<g>
</g>
<g>
</g>
<g>
</g>
<g>
</g>
<g>
</g>
<g>
</g>
<g>
</g>
<g>
</g>
<g>
</g>
<g>
</g>
</svg>
