<?xml version="1.0" encoding="iso-8859-1"?>
<!-- Generator: Adobe Illustrator 18.1.1, SVG Export Plug-In . SVG Version: 6.00 Build 0)  -->
<svg version="1.1" id="Capa_1" xmlns="http://www.w3.org/2000/svg" xmlns:xlink="http://www.w3.org/1999/xlink" x="0px" y="0px"
	 viewBox="0 0 525.153 525.153" style="enable-background:new 0 0 525.153 525.153;" xml:space="preserve">
<g>
	<path d="M0,328.22h43.763V196.932H0V328.22z M65.644,371.983h43.763V153.169H65.644V371.983z M481.39,196.932V328.22h43.763
		V196.932H481.39z M415.746,371.983h43.763V153.169h-43.763V371.983z M361.042,65.644H164.11c-18.162,0-32.822,14.661-32.822,32.822
		v328.22c0,18.162,14.661,32.822,32.822,32.822h196.932c18.162,0,32.822-14.66,32.822-32.822V98.466
		C393.864,80.305,379.204,65.644,361.042,65.644z M350.102,415.746H175.051V109.407h175.051V415.746z"/>
</g>
<g>
</g>
<g>
</g>
<g>
</g>
<g>
</g>
<g>
</g>
<g>
</g>
<g>
</g>
<g>
</g>
<g>
</g>
<g>
</g>
<g>
</g>
<g>
</g>
<g>
</g>
<g>
</g>
<g>
</g>
</svg>
