<?xml version="1.0" encoding="iso-8859-1"?>
<!-- Generator: Adobe Illustrator 18.1.1, SVG Export Plug-In . SVG Version: 6.00 Build 0)  -->
<svg version="1.1" id="Capa_1" xmlns="http://www.w3.org/2000/svg" xmlns:xlink="http://www.w3.org/1999/xlink" x="0px" y="0px"
	 viewBox="0 0 525.153 525.153" style="enable-background:new 0 0 525.153 525.153;" xml:space="preserve">
<g>
	<path d="M334.183,477.407h47.745v-47.745h-47.745V477.407z M429.673,190.959h47.745v-47.745h-47.745V190.959z M47.734,95.468
		v334.194c0,26.236,21.487,47.745,47.745,47.745h95.468v-47.745h-95.49V95.468h95.468V47.745H95.457
		C69.222,47.745,47.734,69.233,47.734,95.468z M429.673,47.745V95.49h47.745C477.397,69.233,455.909,47.745,429.673,47.745z
		 M238.671,525.153h47.789V0h-47.789V525.153z M429.673,381.939h47.745v-47.745h-47.745V381.939z M334.183,95.468h47.745V47.745
		h-47.745V95.468z M429.673,286.471h47.745v-47.789h-47.745V286.471z M429.673,477.407c26.236,0,47.745-21.488,47.745-47.745
		h-47.745V477.407z"/>
</g>
<g>
</g>
<g>
</g>
<g>
</g>
<g>
</g>
<g>
</g>
<g>
</g>
<g>
</g>
<g>
</g>
<g>
</g>
<g>
</g>
<g>
</g>
<g>
</g>
<g>
</g>
<g>
</g>
<g>
</g>
</svg>
