<?xml version="1.0" encoding="iso-8859-1"?>
<!-- Generator: Adobe Illustrator 18.1.1, SVG Export Plug-In . SVG Version: 6.00 Build 0)  -->
<svg version="1.1" id="Capa_1" xmlns="http://www.w3.org/2000/svg" xmlns:xlink="http://www.w3.org/1999/xlink" x="0px" y="0px"
	 viewBox="0 0 525.153 525.153" style="enable-background:new 0 0 525.153 525.153;" xml:space="preserve">
<g>
	<path d="M137.502,103.586L94.527,60.852L60.852,94.527l42.734,42.712L137.502,103.586z M71.596,238.704H0v47.745h71.596V238.704z
		 M286.449,1.203h-47.745v70.414h47.745V1.203z M464.3,94.527l-33.675-33.675l-42.712,42.734l33.654,33.654L464.3,94.527z
		 M387.672,421.566l42.691,42.975l33.675-33.675l-42.953-42.712L387.672,421.566z M453.557,238.704v47.745h71.596v-47.745H453.557z
		 M262.576,119.341c-79.014,0-143.235,64.222-143.235,143.235s64.222,143.235,143.235,143.235s143.235-64.222,143.235-143.235
		S341.59,119.341,262.576,119.341z M238.704,523.949h47.745v-70.414h-47.745V523.949z M60.852,430.625L94.527,464.3l42.712-42.975
		l-33.654-33.654L60.852,430.625z"/>
</g>
<g>
</g>
<g>
</g>
<g>
</g>
<g>
</g>
<g>
</g>
<g>
</g>
<g>
</g>
<g>
</g>
<g>
</g>
<g>
</g>
<g>
</g>
<g>
</g>
<g>
</g>
<g>
</g>
<g>
</g>
</svg>
