<?xml version="1.0" encoding="iso-8859-1"?>
<!-- Generator: Adobe Illustrator 18.1.1, SVG Export Plug-In . SVG Version: 6.00 Build 0)  -->
<svg version="1.1" id="Capa_1" xmlns="http://www.w3.org/2000/svg" xmlns:xlink="http://www.w3.org/1999/xlink" x="0px" y="0px"
	 viewBox="0 0 525.153 525.153" style="enable-background:new 0 0 525.153 525.153;" xml:space="preserve">
<g>
	<path d="M464.454,87.788c-5.777-17.133-22.144-29.409-41.4-29.409H350.08V0H175.073v58.379h-72.974
		c-19.256,0-35.251,12.275-41.4,29.409L0,262.576v233.387c0,15.995,13.129,29.19,29.19,29.19h29.19
		c15.995,0,29.124-13.194,29.124-29.19v-29.19h350.145v29.19c0,15.995,13.129,29.19,29.124,29.19h29.19
		c16.061,0,29.19-13.194,29.19-29.19V262.576L464.454,87.788z M102.098,379.335c-24.179,0-43.719-19.649-43.719-43.85
		c0-24.201,19.54-43.719,43.719-43.719c24.245,0,43.785,19.54,43.785,43.719S126.343,379.335,102.098,379.335z M423.054,379.335
		c-24.245,0-43.785-19.649-43.785-43.85c0-24.201,19.54-43.719,43.785-43.719c24.179,0,43.719,19.54,43.719,43.719
		S447.233,379.335,423.054,379.335z M58.379,233.387l43.719-131.288h320.956l43.719,131.288H58.379z"/>
</g>
<g>
</g>
<g>
</g>
<g>
</g>
<g>
</g>
<g>
</g>
<g>
</g>
<g>
</g>
<g>
</g>
<g>
</g>
<g>
</g>
<g>
</g>
<g>
</g>
<g>
</g>
<g>
</g>
<g>
</g>
</svg>
