<?xml version="1.0" encoding="iso-8859-1"?>
<!-- Generator: Adobe Illustrator 18.1.1, SVG Export Plug-In . SVG Version: 6.00 Build 0)  -->
<svg version="1.1" id="Capa_1" xmlns="http://www.w3.org/2000/svg" xmlns:xlink="http://www.w3.org/1999/xlink" x="0px" y="0px"
	 viewBox="0 0 525.153 525.153" style="enable-background:new 0 0 525.153 525.153;" xml:space="preserve">
<g>
	<path d="M333.756,223.168l60.108-60.108v99.516h13.129l74.834-74.834l-56.191-56.454l56.432-56.454L406.993,0h-13.129v99.516
		l-60.108-60.108l-18.665,18.599l73.237,73.281l-73.237,73.281L333.756,223.168z M420.1,50.174l24.704,24.66L420.1,99.516V50.174z
		 M420.1,163.06l24.704,24.682l-24.704,24.66V163.06z M472.637,380.692c-32.822,0-64.331-5.23-93.718-14.967
		c-9.19-2.823-19.453-0.722-26.805,6.367l-57.767,57.723C220.039,391.983,159.143,331.349,121.31,256.8l57.745-57.986
		c7.374-6.893,9.475-17.133,6.586-26.323c-9.715-29.387-14.945-60.852-14.945-93.674c0-14.507-11.816-26.323-26.28-26.323H52.515
		c-14.42,0-26.28,11.816-26.28,26.323c0,246.493,199.864,446.336,446.402,446.336c14.464,0,26.28-11.816,26.28-26.236v-91.88
		C498.917,392.508,487.101,380.692,472.637,380.692z"/>
</g>
<g>
</g>
<g>
</g>
<g>
</g>
<g>
</g>
<g>
</g>
<g>
</g>
<g>
</g>
<g>
</g>
<g>
</g>
<g>
</g>
<g>
</g>
<g>
</g>
<g>
</g>
<g>
</g>
<g>
</g>
</svg>
