<?xml version="1.0" encoding="iso-8859-1"?>
<!-- Generator: Adobe Illustrator 18.1.1, SVG Export Plug-In . SVG Version: 6.00 Build 0)  -->
<svg version="1.1" id="Capa_1" xmlns="http://www.w3.org/2000/svg" xmlns:xlink="http://www.w3.org/1999/xlink" x="0px" y="0px"
	 viewBox="0 0 525.153 525.153" style="enable-background:new 0 0 525.153 525.153;" xml:space="preserve">
<g>
	<path d="M518.807,377.235c-66.738-63.259-156.889-102.186-256.231-102.186S73.084,313.997,6.346,377.235
		C2.385,381.173,0,386.644,0,392.77c0,6.127,2.385,11.597,6.346,15.536l54.244,54.266c3.961,3.939,9.431,6.346,15.558,6.346
		c5.908,0,11.378-2.385,15.295-6.105c17.308-16.192,36.979-29.737,58.204-40.481c7.221-3.501,12.275-10.941,12.275-19.693v-67.832
		c31.706-10.503,65.644-15.973,100.654-15.973s68.926,5.47,100.654,15.776v67.832c0,8.534,5.033,16.192,12.275,19.693
		c21.444,10.7,40.896,24.485,58.204,40.48c3.939,3.939,9.409,6.105,15.295,6.105c6.127,0,11.597-2.385,15.558-6.324l54.244-54.266
		c3.961-3.939,6.346-9.409,6.346-15.536C525.153,386.644,522.767,381.173,518.807,377.235L518.807,377.235z M463.009,149.472
		l-30.853-30.853l-77.92,77.679l30.853,30.853C385.112,227.128,460.603,150.106,463.009,149.472z M284.458,56.235h-43.763v109.407
		h43.763V56.235z M140.041,227.128l30.853-30.853l-77.679-77.898L62.143,149.45C64.55,150.106,140.041,227.128,140.041,227.128z"/>
</g>
<g>
</g>
<g>
</g>
<g>
</g>
<g>
</g>
<g>
</g>
<g>
</g>
<g>
</g>
<g>
</g>
<g>
</g>
<g>
</g>
<g>
</g>
<g>
</g>
<g>
</g>
<g>
</g>
<g>
</g>
</svg>
