<?xml version="1.0" encoding="iso-8859-1"?>
<!-- Generator: Adobe Illustrator 18.1.1, SVG Export Plug-In . SVG Version: 6.00 Build 0)  -->
<svg version="1.1" id="Capa_1" xmlns="http://www.w3.org/2000/svg" xmlns:xlink="http://www.w3.org/1999/xlink" x="0px" y="0px"
	 viewBox="0 0 525.153 525.153" style="enable-background:new 0 0 525.153 525.153;" xml:space="preserve">
<g>
	<path d="M262.576,0C117.634,0,0,117.634,0,262.576c0,144.92,117.634,262.576,262.576,262.576
		c144.92,0,262.576-117.656,262.576-262.576C525.153,117.634,407.496,0,262.576,0z M236.341,470.799
		C132.864,457.933,52.515,369.707,52.515,262.576S132.579,67.22,236.319,54.353v416.446H236.341z M288.812,54.353
		c27.045,3.413,52.515,11.816,75.359,24.42h-75.359C288.812,78.773,288.812,54.353,288.812,54.353z M288.812,131.288h137.612
		c6.586,8.162,12.604,17.089,17.855,26.236H288.812C288.812,157.524,288.812,131.288,288.812,131.288z M288.812,210.061h177.02
		c2.101,8.665,3.939,17.352,4.967,26.28H288.834v-26.28H288.812z M288.812,470.799v-24.42h75.359
		C341.349,459.005,315.879,467.386,288.812,470.799z M426.424,393.864H288.812v-26.236h155.467
		C439.027,376.775,433.01,385.703,426.424,393.864z M465.832,315.092h-177.02v-26.28h181.965
		C469.771,297.74,467.933,306.426,465.832,315.092z"/>
</g>
<g>
</g>
<g>
</g>
<g>
</g>
<g>
</g>
<g>
</g>
<g>
</g>
<g>
</g>
<g>
</g>
<g>
</g>
<g>
</g>
<g>
</g>
<g>
</g>
<g>
</g>
<g>
</g>
<g>
</g>
</svg>
