<?xml version="1.0" encoding="iso-8859-1"?>
<!-- Generator: Adobe Illustrator 18.1.1, SVG Export Plug-In . SVG Version: 6.00 Build 0)  -->
<svg version="1.1" id="Capa_1" xmlns="http://www.w3.org/2000/svg" xmlns:xlink="http://www.w3.org/1999/xlink" x="0px" y="0px"
	 viewBox="0 0 525.131 525.131" style="enable-background:new 0 0 525.131 525.131;" xml:space="preserve">
<g>
	<path d="M441.609,226.746c4.07,0,7.855,0.722,11.925,1.225V11.914L0,465.471h310.321v-71.618c0-21.247,9.321-40.087,23.894-53.259
		v-6.411C334.194,274.95,382.42,226.746,441.609,226.746z M501.258,369.959v-35.776c0-32.975-26.739-59.714-59.67-59.714
		s-59.67,26.739-59.67,59.714v35.776c-13.151,0-23.894,10.744-23.894,23.894v95.468c0,13.151,10.744,23.894,23.894,23.894h119.319
		c13.151,0,23.894-10.744,23.894-23.894v-95.468C525.153,380.703,514.409,369.959,501.258,369.959z M477.407,369.959H405.79v-35.776
		c0-19.825,15.973-35.82,35.82-35.82s35.82,15.973,35.82,35.82v35.776H477.407z"/>
</g>
<g>
</g>
<g>
</g>
<g>
</g>
<g>
</g>
<g>
</g>
<g>
</g>
<g>
</g>
<g>
</g>
<g>
</g>
<g>
</g>
<g>
</g>
<g>
</g>
<g>
</g>
<g>
</g>
<g>
</g>
</svg>
