<?xml version="1.0" encoding="iso-8859-1"?>
<!-- Generator: Adobe Illustrator 18.1.1, SVG Export Plug-In . SVG Version: 6.00 Build 0)  -->
<svg version="1.1" id="Capa_1" xmlns="http://www.w3.org/2000/svg" xmlns:xlink="http://www.w3.org/1999/xlink" x="0px" y="0px"
	 viewBox="0 0 525.153 525.153" style="enable-background:new 0 0 525.153 525.153;" xml:space="preserve">
<g>
	<path d="M459.508,175.051v-21.881l-65.644,43.763l-65.644-43.763v21.881l65.644,43.763L459.508,175.051z M481.39,65.644H43.763
		C19.693,65.644,0,85.337,0,109.407v306.339c0,24.069,19.693,43.763,43.763,43.763H481.39c24.069,0,43.544-19.693,43.544-43.763
		l0.219-306.339C525.153,85.337,505.459,65.644,481.39,65.644z M175.051,131.288c36.323,0,65.644,29.321,65.644,65.644
		s-29.321,65.644-65.644,65.644s-65.644-29.321-65.644-65.644S138.728,131.288,175.051,131.288z M306.339,393.864H43.763v-21.881
		c0-43.763,87.525-67.832,131.288-67.832s131.288,24.069,131.288,67.832V393.864z M481.39,262.576H306.339V131.288H481.39V262.576z"
		/>
</g>
<g>
</g>
<g>
</g>
<g>
</g>
<g>
</g>
<g>
</g>
<g>
</g>
<g>
</g>
<g>
</g>
<g>
</g>
<g>
</g>
<g>
</g>
<g>
</g>
<g>
</g>
<g>
</g>
<g>
</g>
</svg>
