<?xml version="1.0" encoding="iso-8859-1"?>
<!-- Generator: Adobe Illustrator 18.1.1, SVG Export Plug-In . SVG Version: 6.00 Build 0)  -->
<svg version="1.1" id="Capa_1" xmlns="http://www.w3.org/2000/svg" xmlns:xlink="http://www.w3.org/1999/xlink" x="0px" y="0px"
	 viewBox="0 0 525.153 525.153" style="enable-background:new 0 0 525.153 525.153;" xml:space="preserve">
<g>
	<path d="M188.278,389.379c40.984,40.984,107.656,40.984,148.64,0s40.984-107.656,0-148.553L188.278,389.379z M420.111,0.306
		L105.063,0C75.895,0,52.526,23.413,52.526,52.471v420.188c0,29.08,23.369,52.493,52.537,52.493h315.048
		c29.146,0,52.515-23.413,52.515-52.471V52.471C472.648,23.413,449.257,0.306,420.111,0.306z M210.072,52.471
		c14.464,0,26.28,11.816,26.28,26.323c0,14.42-11.816,26.236-26.28,26.236c-14.442,0.022-26.258-11.794-26.258-26.214
		C183.814,64.287,195.63,52.471,210.072,52.471z M131.299,52.471c14.42,0,26.236,11.816,26.236,26.323
		c0,14.42-11.816,26.236-26.236,26.236s-26.236-11.816-26.236-26.236C105.063,64.287,116.879,52.471,131.299,52.471z
		 M262.587,472.681c-86.913,0-157.524-70.655-157.524-157.611c0-86.891,70.611-157.524,157.524-157.524
		c86.935,0,157.524,70.655,157.524,157.524C420.111,402.026,349.522,472.681,262.587,472.681z"/>
</g>
<g>
</g>
<g>
</g>
<g>
</g>
<g>
</g>
<g>
</g>
<g>
</g>
<g>
</g>
<g>
</g>
<g>
</g>
<g>
</g>
<g>
</g>
<g>
</g>
<g>
</g>
<g>
</g>
<g>
</g>
</svg>
