<?xml version="1.0" encoding="iso-8859-1"?>
<!-- Generator: Adobe Illustrator 18.1.1, SVG Export Plug-In . SVG Version: 6.00 Build 0)  -->
<svg version="1.1" id="Capa_1" xmlns="http://www.w3.org/2000/svg" xmlns:xlink="http://www.w3.org/1999/xlink" x="0px" y="0px"
	 viewBox="0 0 525.153 525.153" style="enable-background:new 0 0 525.153 525.153;" xml:space="preserve">
<g>
	<path d="M466.773,0H58.379C26.236,0,0,26.236,0,58.379v408.394c0,32.144,26.236,58.379,58.379,58.379h408.394
		c32.144,0,58.379-26.236,58.379-58.379V58.379C525.153,26.236,498.917,0,466.773,0z M58.379,58.029h87.438
		c0,48.511-39.058,87.788-87.438,87.788V58.029z M58.379,262.576v-58.379c80.523,0,145.817-65.644,145.817-146.167h58.379
		C262.576,170.915,171.265,262.576,58.379,262.576z M58.379,437.583l102.098-131.288l72.909,87.919l102.098-131.638l131.288,175.007
		C466.773,437.583,58.379,437.583,58.379,437.583z"/>
</g>
<g>
</g>
<g>
</g>
<g>
</g>
<g>
</g>
<g>
</g>
<g>
</g>
<g>
</g>
<g>
</g>
<g>
</g>
<g>
</g>
<g>
</g>
<g>
</g>
<g>
</g>
<g>
</g>
<g>
</g>
</svg>
