<?xml version="1.0" encoding="iso-8859-1"?>
<!-- Generator: Adobe Illustrator 18.1.1, SVG Export Plug-In . SVG Version: 6.00 Build 0)  -->
<svg version="1.1" id="Capa_1" xmlns="http://www.w3.org/2000/svg" xmlns:xlink="http://www.w3.org/1999/xlink" x="0px" y="0px"
	 viewBox="0 0 525.153 525.153" style="enable-background:new 0 0 525.153 525.153;" xml:space="preserve">
<g>
	<g>
		<path d="M0,237.599V481.51h525.153V237.599H0z M375.922,272.04h22.975h22.954v45.907h-22.954h-22.975V272.04z M387.409,340.922
			v45.907h-22.975H341.48v-45.907h22.954H387.409z M307.039,272.04h22.975h22.975v45.907h-22.975h-22.975V272.04z M318.549,340.922
			v45.907h-22.975H272.62v-45.907h22.954H318.549z M238.2,272.04h22.954h22.932v45.907h-22.932H238.2V272.04z M249.644,340.922
			v45.907h-22.932h-22.975v-45.907h22.975H249.644z M169.296,272.04h22.975h22.954v45.907h-22.954h-22.975
			C169.296,317.947,169.296,272.04,169.296,272.04z M180.806,340.922v45.907H157.83h-22.954v-45.907h22.954H180.806z
			 M100.457,272.04h22.932h22.975v45.907h-22.975h-22.932V272.04z M31.553,317.947V272.04h22.954h22.975v45.907H54.506
			C54.506,317.947,31.553,317.947,31.553,317.947z M66.016,386.808v-45.885H88.97h22.975v45.907H88.97H66.016V386.808z
			 M433.316,458.557h-34.419h-34.441h-34.419h-34.441h-34.419h-34.419h-34.485H157.83h-34.441H88.948V412.65h34.419h34.441h34.441
			h34.441h34.419h34.419h34.441h34.419h34.441h34.419v45.907H433.316z M456.292,386.808h-22.975h-22.954v-45.885h22.954h22.975
			V386.808z M490.711,317.947h-22.954h-22.975V272.04h22.975h22.954V317.947z"/>
		<path d="M98.269,161.561l20.634,37.767c36.389-19.89,82.733-30.831,130.522-30.831s94.177,10.941,130.522,30.831l20.656-37.767
			c-42.581-23.282-96.278-36.104-151.178-36.104C194.525,125.457,140.872,138.257,98.269,161.561z"/>
		<path d="M249.426,86.705c66.454,0,130.96,15.273,181.659,42.997l20.634-37.767c-56.913-31.137-128.772-48.292-202.293-48.292
			S104.068,60.797,47.132,91.935l20.656,37.767C118.488,101.978,182.994,86.705,249.426,86.705z"/>
	</g>
</g>
<g>
</g>
<g>
</g>
<g>
</g>
<g>
</g>
<g>
</g>
<g>
</g>
<g>
</g>
<g>
</g>
<g>
</g>
<g>
</g>
<g>
</g>
<g>
</g>
<g>
</g>
<g>
</g>
<g>
</g>
</svg>
