<?xml version="1.0" encoding="iso-8859-1"?>
<!-- Generator: Adobe Illustrator 18.1.1, SVG Export Plug-In . SVG Version: 6.00 Build 0)  -->
<svg version="1.1" id="Capa_1" xmlns="http://www.w3.org/2000/svg" xmlns:xlink="http://www.w3.org/1999/xlink" x="0px" y="0px"
	 viewBox="0 0 525.153 525.153" style="enable-background:new 0 0 525.153 525.153;" xml:space="preserve">
<g>
	<path d="M472.681,0H52.471C23.632,0,0.306,23.632,0.306,52.472L0,525.153L105.052,420.1h367.629
		c28.84,0,52.472-23.632,52.472-52.472V52.472C525.153,23.632,501.521,0,472.681,0z M105.052,315.048v-64.834L285.683,69.605
		c5.23-5.317,13.391-5.317,18.621,0l46.498,46.41c5.252,5.317,5.252,13.37,0,18.687L169.887,315.026h-64.834V315.048z
		 M420.1,315.048H223.168l52.581-52.471h144.373v52.471H420.1z"/>
</g>
<g>
</g>
<g>
</g>
<g>
</g>
<g>
</g>
<g>
</g>
<g>
</g>
<g>
</g>
<g>
</g>
<g>
</g>
<g>
</g>
<g>
</g>
<g>
</g>
<g>
</g>
<g>
</g>
<g>
</g>
</svg>
